<?xml version="1.0" encoding="UTF-8"?>
<svg id="simbolo" xmlns="http://www.w3.org/2000/svg" version="1.1" viewBox="0 0 213.7 245.6">
  <!-- Generator: Adobe Illustrator 30.0.0, SVG Export Plug-In . SVG Version: 2.1.1 Build 123)  -->
  <defs>
    <style>
      .st0 {
        fill: #fff;
      }
    </style>
  </defs>
  <g id="simbolo1">
    <path class="st0" d="M188.1,86.7c6.1,21.1,5,46.6-1.2,69.7-11.7,43.9-39.2,75.2-71.7,66.6-18.1-4.8-29.7-19.9-32.3-39-11.5,9.7-26.6,15.4-42.3,11.2-30.8-8.2-37.2-46.7-28-81.1,7.9-29.6,27-54.4,52.8-53.2l-.7,29.5c-11.7,1.7-20.5,14.5-24.5,29.5-5.2,19.6-1.6,40.5,14.4,44.7,10.5,2.8,18.7-2.9,24.6-10.8-.5-8.8-.3-18,1.6-25.1,3.9-14.8,14.7-20.6,24.2-18.1,9.5,2.5,16.3,12.8,12.2,28-2.4,9.1-8.1,18-14.2,25.4,0,11.5,3.3,22.1,15.3,25.3,17.7,4.7,33.4-13.1,41.2-42.5,5-18.6,6.2-39.8,2-55.5l26.5-4.7h0Z"/>
    <path class="st0" d="M201.8,42.6c0,.4,0,.8-.3,1.2-.6,1.2-3.2,2.4-4.4,2.9-4.5,1.9-9.2,2.8-14.1,3.2l3.2,1.4c4.1,1.9,7.8,4.5,10.9,7.8,1.1,1.3,2.3,2.3,1.6,4.2-.8,2.5-3.9,1.7-5.8,1.2-2.3-.6-4.7-1.6-6.8-2.7-2.4-1.2-4.8-2.6-6.9-4.2,1.9,3.4,3.5,6.9,4.2,10.8.4,2,.6,4,.7,6,0,1.4,0,2.6-1.2,3.5-2.2,1.6-4-.7-5.2-2.3s-2.1-3.3-2.9-5c-1.5-3-2.6-6.2-3.4-9.5h0c-.3,1.3-.5,2.6-.8,3.9-1.1,4.1-2.9,7.8-5.4,11.3-1.1,1.6-2.2,3.2-4.4,2.7s-2.1-2.9-1.9-4.7c.2-4.2,1.7-9.1,3.3-12.9.4-.9.8-1.8,1.2-2.8-4.1,3.5-8.8,6.4-14.1,7.6-1.9.4-4.3,1.1-5.6-.8s.6-3.8,1.9-5.2c2.8-2.8,6.2-5.1,9.6-7l3.3-1.6c-1.7,0-3.4,0-5-.4-4.2-.5-8.3-1.8-12-3.8-1.5-.8-2.7-1.8-2.2-3.7.4-1.5,1.4-1.8,2.8-2.1,2.4-.5,5.3-.4,7.8-.2,3.3.2,6.5.9,9.7,1.7-3.6-3.1-6.8-6.7-9-10.9-.6-1.1-1.2-2.4-1.6-3.6-.5-1.3-.7-2.4.3-3.5,1.9-2.2,4.7,0,6.4,1.2,3.3,2.5,6.2,5.6,8.7,8.9.5.6.9,1.3,1.4,1.9-.8-4.5-.9-9,0-13.4.2-1.3.6-2.6,1-3.8.5-1.5.9-2.9,2.7-3.1,2.2-.3,2.8,1.2,3.4,2.9,1.4,4.1,1.8,9.2,1.6,13.6,0,1.1-.1,2.1-.2,3.1l1.7-2.7c2.8-4,6.2-7.6,10.5-10,1.2-.7,1.9-1.1,3.3-.6,3,1.2,1.3,4.7.2,6.7-1.8,3.7-4.5,7-7.2,10l-1.7,1.7c1.9-.6,3.7-1.3,5.7-1.6,3.9-.8,7.9-.8,11.8-.3,1.8.2,3.1.7,3.4,2.7h0v.3h-.2Z"/>
  </g>
</svg>