<?xml version="1.0" encoding="UTF-8"?>
<svg id="principal_com_simbolo" xmlns="http://www.w3.org/2000/svg" version="1.1" viewBox="0 0 636.94 114.24">
  <!-- Generator: Adobe Illustrator 30.0.0, SVG Export Plug-In . SVG Version: 2.1.1 Build 123)  -->
  <defs>
    <style>
      .st0 {
        fill: #f9f9f6;
      }

      .st1 {
        fill: #f23db3;
      }
    </style>
  </defs>
  <g id="Arte_112">
    <g>
      <g id="eidos_studio">
        <g>
          <g>
            <path class="st0" d="M161.58,83.43c-6.47,3.85-14.87,5.62-22.89,5.62-14.25,0-26.97-5.62-26.97-16.57,0-5.47,3.24-10.56,8.94-13.18-4.01-2.62-6.78-6.4-6.78-11.33,0-10.25,11.79-15.57,23.5-15.57,10.86,0,21.58,4.62,22.73,14.33l-14.02,2c-1-2.93-4.47-4.32-7.94-4.32-4.39,0-8.55,2.08-8.55,5.78,0,2.31,1.54,3.85,3.7,4.78,2.08-.69,4.32-1.16,6.24-1.16,4.78,0,8.09,2.47,8.09,6.47s-3.31,6.63-8.17,6.63c-2.54,0-5.24-.69-7.86-1.85-2.31.92-4.01,2.47-4.01,4.85,0,4.16,5.24,6.32,12.17,6.32,6.01,0,13.02-1.62,17.34-4.39l4.47,11.56v.03Z"/>
            <path class="st0" d="M162.66,33.65c0-4.78,3.54-7.94,9.17-7.94s9.17,3,9.17,7.78-3.54,8.01-9.17,8.01-9.17-3.08-9.17-7.86h0ZM197.56,79.73c-4.39,6.01-11.63,9.32-18.42,9.32-7.94,0-14.64-4.32-14.64-13.25v-29.82h14.64v26.35c0,2.93,1.62,4.47,3.78,4.47s4.78-1.46,7.17-4.39l7.47,7.32Z"/>
            <path class="st0" d="M251.73,79.73c-4.32,6.01-11.56,9.32-18.42,9.32-5.32,0-10.09-2-12.64-6.01-3.01,3.78-7.63,6.01-13.48,6.01-11.48,0-19.8-8.78-19.8-22.04s8.17-22.04,20.03-22.04c4.47,0,8.48,1.31,11.33,3.62v-18.26h14.64v41.99c0,2.93,1.54,4.47,3.78,4.47s4.78-1.46,7.17-4.39l7.4,7.32h-.01ZM218.75,72.79v-12.02c-1.77-2-4.62-3.31-7.78-3.31-5.39,0-8.55,3.62-8.55,9.63s3.16,9.48,8.4,9.48c3.39,0,6.24-1.31,7.94-3.78h0Z"/>
            <path class="st0" d="M340.64,79.88c-4.32,5.7-11.1,9.25-17.57,9.25-2.47,0-4.85-.54-6.78-1.54-2.54,1-5.39,1.54-8.24,1.54-8.17,0-11.1-4.32-11.1-8.32s3.01-7.94,8.63-7.94c1.93,0,3.93.39,6.09,1.39-.08-3.31-2.24-7.55-6.47-12.33-2.7,4.93-9.48,8.78-16.57,9.4h-1.46l-.92-13.33c.77.23,1.62.31,2.31.31,4.93,0,8.78-4.39,8.78-10.71,0-.39,0-.54-.08-1.16l9.55-1.77c10.71,10.17,18.8,21.34,18.8,30.2,0,.62-.08,1.31-.15,1.93,3.16-.15,5.55-1.93,7.47-4.32l7.71,7.4h0Z"/>
            <path class="st0" d="M297.8,53.91c-3.32,3.54-7.09,5.24-9.94,4.62-3.31-8.17-11.48-13.56-22.11-13.56-13.95,0-23.74,9.25-23.74,22.04s9.94,22.12,23.74,22.12c12.17,0,21.49-7.24,23.34-17.96,6.16-.84,12.33-3.93,16.26-8.63l-7.55-8.63h0ZM276.22,73.55c-.16.7-1.04.35-1.51.21-.56-.17-1.16-.42-1.75-.7-.79-.38-1.56-.83-2.22-1.25-1.38-.9-2.56-2-3.74-3.14l.98,1.72c1.03,1.9,1.73,3.54,1.97,5.51.08.58.11,1.2.1,1.86,0,.33.08.81-.19,1.05-.38.33-.67.18-.95-.15-.44-.51-.84-1.23-1.2-1.98-.31-.68-.58-1.37-.78-1.96-.62-1.82-.92-3.7-1.08-5.61-.39,2.36-.8,4.78-1.98,6.88-.12.21-.25.42-.4.64-.42.66-.91,1.31-1.4,1.86-.26.27-.48.41-.86.25-.27-.1-.3-.32-.31-.58-.03-.73.17-1.63.35-2.34,0-.02,0-.03.01-.05.66-2.52,1.88-4.78,3.37-6.89-.07-.01-.08.03-.12.07-1.94,1.63-3.81,3.16-6.08,3.99-.85.32-1.76.54-2.75.63-.44.04-.88-.27-.77-.74.07-.3,1.03-1.15,1.31-1.37.39-.31.81-.62,1.25-.9,1.43-.93,3.09-1.7,4.63-2.19l1.87-.56c-.4-.01-.8.04-1.19.03-2.06,0-3.93-.16-5.73-.75-.98-.31-1.95-.76-2.91-1.38-.35-.22-.56-.46-.38-.9.09-.21.23-.25.44-.3.85-.19,2.06-.11,2.93-.01.05,0,.1.01.15.02,2.38.28,4.62,1.03,6.77,2.05-.56-.5-1.15-.96-1.71-1.45-1.51-1.35-2.71-2.69-3.58-4.4-.23-.46-.45-.94-.64-1.46-.07-.21-.3-.82-.29-1,.02-.4.44-.69.82-.53.46.19,1.13.75,1.68,1.27.25.23.47.46.64.63,1.15,1.2,2.13,2.57,2.95,4.01l1.03,2.03c-.18-1.16-.42-2.32-.53-3.5-.16-1.73-.06-3.26.38-4.88.07-.24.14-.49.22-.74.08-.24.37-1.09.52-1.24.17-.17.56-.23.77-.11.23.13.41.9.48,1.17.07.3.13.62.17.94.23,1.59.17,3.42-.03,4.92-.15,1.13-.46,2.22-.7,3.33l1.06-1.8c.72-1.23,1.61-2.42,2.65-3.44.29,1,.67,1.93,1.11,2.79-1.13,1.21-2.42,2.23-3.78,3.2,1.59-.54,3.15-1.17,4.8-1.47.61.9,1.31,1.71,2.08,2.43-2.17.45-4.46.47-6.65.24l2.25.84c1.54.58,2.99,1.37,4.25,2.4.74.6,1.41,1.29,2,2.06.19.25.33.4.25.75h-.03Z"/>
          </g>
          <g>
            <path class="st0" d="M397.12,71.56c0,11.17-10.86,17.57-24.58,17.49-11.71-.08-22.5-4.78-22.5-15.03,0-5.78,3.47-9.86,8.55-12.87-3.93-2.47-6.78-6.01-6.78-11.56,0-10.48,9.94-17.18,22.5-17.18,10.02,0,20.57,4.32,20.42,16.18h-14.02c.23-2.93-3.24-4.47-6.7-4.47-3.24,0-6.63,1.46-6.63,4.24,0,8.09,29.74,4.47,29.74,23.19h0ZM381.48,72.79c0-3.7-5.55-5.16-11.87-7.17-3.31,2.08-5.16,4.24-5.16,6.7,0,3.62,3.7,5.16,8.24,5.16,4.47.08,8.78-1.39,8.78-4.7h.01Z"/>
            <path class="st0" d="M440.42,79.73c-3.93,6.01-11.4,9.32-19.11,9.32-8.86,0-17.41-4.32-17.41-15.64v-16.41h-4.24v-11.02h4.24v-9.09h14.64v9.09h7.17v11.02h-7.17v14.1c0,4.24,2.93,5.93,6.09,5.93s6.24-1.7,8.32-4.7l7.47,7.4Z"/>
            <path class="st0" d="M493.97,79.73c-4.39,6.01-11.63,9.32-18.49,9.32-5.01,0-9.63-1.77-12.17-5.47-3.54,3.62-8.63,5.47-14.02,5.47-8.94,0-17.34-4.93-17.34-15.18v-27.89h14.64v23.58c0,3.85,2,7.01,6.93,7.01,3.08,0,5.78-1.23,7.4-3.47v-27.12h14.64v26.35c0,2.93,1.54,4.47,3.78,4.47s4.78-1.46,7.17-4.39l7.47,7.32h-.01Z"/>
            <path class="st0" d="M548.06,79.73c-4.32,6.01-11.56,9.32-18.42,9.32-5.32,0-10.09-2-12.64-6.01-3.01,3.78-7.63,6.01-13.48,6.01-11.48,0-19.8-8.78-19.8-22.04s8.17-22.04,20.03-22.04c4.47,0,8.48,1.31,11.33,3.62v-18.26h14.64v41.99c0,2.93,1.54,4.47,3.78,4.47s4.78-1.46,7.17-4.39l7.4,7.32h-.01ZM515.08,72.79v-12.02c-1.77-2-4.62-3.31-7.78-3.31-5.39,0-8.55,3.62-8.55,9.63s3.16,9.48,8.4,9.48c3.39,0,6.24-1.31,7.94-3.78h-.01Z"/>
            <path class="st0" d="M537.65,33.65c0-4.78,3.54-7.94,9.17-7.94s9.17,3,9.17,7.78-3.54,8.01-9.17,8.01-9.17-3.08-9.17-7.86h0ZM572.56,79.73c-4.39,6.01-11.63,9.32-18.42,9.32-7.94,0-14.64-4.32-14.64-13.25v-29.82h14.64v26.35c0,2.93,1.62,4.47,3.78,4.47s4.78-1.46,7.17-4.39l7.47,7.32Z"/>
            <path class="st0" d="M617.86,53.91c-3.32,3.54-7.09,5.24-9.94,4.62-3.31-8.17-11.48-13.56-22.11-13.56-13.95,0-23.74,9.25-23.74,22.04s9.94,22.12,23.74,22.12c12.17,0,21.49-7.24,23.34-17.96,6.16-.84,12.33-3.93,16.26-8.63l-7.55-8.63h0ZM596.28,73.55c-.16.7-1.04.35-1.51.21-.56-.17-1.16-.42-1.75-.7-.79-.38-1.56-.83-2.22-1.25-1.38-.9-2.56-2-3.74-3.14l.98,1.72c1.03,1.9,1.73,3.54,1.97,5.51.08.58.11,1.2.1,1.86,0,.33.08.81-.19,1.05-.38.33-.67.18-.95-.15-.44-.51-.84-1.23-1.2-1.98-.31-.68-.58-1.37-.78-1.96-.62-1.82-.92-3.7-1.08-5.61-.39,2.36-.8,4.78-1.98,6.88-.12.21-.25.42-.4.64-.42.66-.91,1.31-1.4,1.86-.26.27-.48.41-.86.25-.27-.1-.3-.32-.31-.58-.03-.73.17-1.63.35-2.34,0-.02,0-.03.01-.05.66-2.52,1.88-4.78,3.37-6.89-.07-.01-.08.03-.12.07-1.94,1.63-3.81,3.16-6.08,3.99-.85.32-1.76.54-2.75.63-.44.04-.88-.27-.77-.74.07-.3,1.03-1.15,1.31-1.37.39-.31.81-.62,1.25-.9,1.43-.93,3.09-1.7,4.63-2.19l1.87-.56c-.4-.01-.8.04-1.19.03-2.06,0-3.93-.16-5.73-.75-.98-.31-1.95-.76-2.91-1.38-.35-.22-.56-.46-.38-.9.09-.21.23-.25.44-.3.85-.19,2.06-.11,2.93-.01.05,0,.1.01.15.02,2.38.28,4.62,1.03,6.77,2.05-.56-.5-1.15-.96-1.71-1.45-1.51-1.35-2.71-2.69-3.58-4.4-.23-.46-.45-.94-.64-1.46-.07-.21-.3-.82-.29-1,.02-.4.44-.69.82-.53.46.19,1.13.75,1.68,1.27.25.23.47.46.64.63,1.15,1.2,2.13,2.57,2.95,4.01l1.03,2.03c-.18-1.16-.42-2.32-.53-3.5-.16-1.73-.06-3.26.38-4.88.07-.24.14-.49.22-.74.08-.24.37-1.09.52-1.24.17-.17.56-.23.77-.11.23.13.41.9.48,1.17.07.3.13.62.17.94.23,1.59.17,3.42-.03,4.92-.15,1.13-.46,2.22-.7,3.33l1.06-1.8c.72-1.23,1.61-2.42,2.65-3.44.29,1,.67,1.93,1.11,2.79-1.13,1.21-2.42,2.23-3.78,3.2,1.59-.54,3.15-1.17,4.8-1.47.61.9,1.31,1.71,2.08,2.43-2.17.45-4.46.47-6.65.24l2.25.84c1.54.58,2.99,1.37,4.25,2.4.74.6,1.41,1.29,2,2.06.19.25.33.4.25.75h-.03Z"/>
          </g>
        </g>
      </g>
      <g id="simbolo">
        <path class="st1" d="M96.91,42.29c2.34,10.01,1.15,21.92-2.32,32.6-6.58,20.26-20.24,34.2-35.21,29.33-8.37-2.72-13.4-10.08-14.13-19.07-5.64,4.25-12.83,6.54-20.1,4.18-14.2-4.61-16.21-22.79-11.06-38.64,4.44-13.65,14.01-24.78,26.03-23.55l-1.07,13.77c-5.52.52-9.94,6.26-12.2,13.2-2.93,9.03-1.76,18.9,5.62,21.3,4.84,1.57,8.81-.91,11.79-4.45,0-4.14.3-8.42,1.37-11.72,2.22-6.83,7.4-9.28,11.8-7.85s7.3,6.39,5.01,13.43c-1.36,4.18-4.26,8.23-7.27,11.51-.29,5.38.99,10.42,6.5,12.21,8.15,2.65,15.96-5.28,20.36-18.82,2.79-8.59,3.92-18.44,2.33-25.9l12.55-1.52h0Z"/>
        <path class="st1" d="M104.46,21.99c-.02.19-.06.37-.15.54-.32.56-1.54,1.02-2.13,1.24-2.13.77-4.4,1.09-6.67,1.16l1.48.71c1.86.99,3.55,2.31,4.88,3.94.5.62,1,1.15.66,2-.45,1.17-1.86.7-2.74.41-1.09-.36-2.14-.87-3.13-1.43-1.1-.62-2.16-1.33-3.14-2.13.8,1.63,1.45,3.34,1.71,5.14.14.94.16,1.89.17,2.83,0,.67-.04,1.21-.65,1.6-1.07.68-1.85-.41-2.36-1.21s-.89-1.6-1.24-2.43c-.61-1.45-1.08-2.96-1.37-4.51-.03,0-.03.04-.03.06-.17.57-.29,1.16-.48,1.73-.62,1.89-1.57,3.59-2.82,5.13-.57.7-1.12,1.46-2.14,1.13s-.89-1.39-.79-2.24c.21-1.94,1.02-4.2,1.86-5.95.2-.42.43-.83.63-1.25-2.01,1.53-4.27,2.76-6.79,3.21-.88.16-2.07.43-2.62-.51s.37-1.77,1.02-2.36c1.38-1.26,3.02-2.22,4.69-3.04l1.57-.69c-.79-.07-1.57-.15-2.35-.29-1.93-.35-3.84-1.04-5.5-2.08-.68-.43-1.21-.91-.93-1.8.21-.68.72-.82,1.36-.92,1.15-.17,2.49-.06,3.63.08,1.53.2,3.03.57,4.49,1.05-1.63-1.53-3.01-3.3-3.93-5.36-.24-.54-.48-1.15-.66-1.71-.19-.6-.26-1.13.22-1.61.96-.97,2.19.09,2.96.75,1.46,1.24,2.77,2.78,3.84,4.36.2.3.39.62.6.92-.27-2.1-.18-4.23.36-6.28.15-.58.34-1.18.55-1.74.27-.7.49-1.31,1.35-1.39,1.02-.09,1.29.63,1.53,1.45.56,1.98.6,4.36.42,6.4-.04.49-.11.98-.17,1.47l.87-1.21c1.39-1.79,3.1-3.39,5.14-4.42.57-.29.93-.48,1.57-.19,1.39.63.47,2.23-.05,3.15-.95,1.66-2.26,3.16-3.61,4.51l-.84.76c.89-.25,1.78-.5,2.69-.63,1.83-.28,3.7-.19,5.51.15.83.16,1.44.41,1.52,1.36l.02.03v.1h0Z"/>
      </g>
    </g>
  </g>
</svg>